<svg width="0" height="0" class="hidden">
  <symbol xmlns="http://www.w3.org/2000/svg" viewBox="0 0 112.197 112.197" id="twitter">
       <path d="M90.461 40.316a26.753 26.753 0 0 1-7.702 2.109 13.445 13.445 0 0 0 5.897-7.417 26.843 26.843 0 0 1-8.515 3.253 13.396 13.396 0 0 0-9.79-4.233c-7.404 0-13.409 6.005-13.409 13.409 0 1.051.119 2.074.349 3.056-11.144-.559-21.025-5.897-27.639-14.012a13.351 13.351 0 0 0-1.816 6.742c0 4.651 2.369 8.757 5.965 11.161a13.314 13.314 0 0 1-6.073-1.679l-.001.17c0 6.497 4.624 11.916 10.757 13.147a13.362 13.362 0 0 1-3.532.471c-.866 0-1.705-.083-2.523-.239 1.706 5.326 6.657 9.203 12.526 9.312a26.904 26.904 0 0 1-16.655 5.74c-1.08 0-2.15-.063-3.197-.188a37.929 37.929 0 0 0 20.553 6.025c24.664 0 38.152-20.432 38.152-38.153 0-.581-.013-1.16-.039-1.734a27.192 27.192 0 0 0 6.692-6.94z"
      fill="#fff"></path>
  </symbol>
  <symbol xmlns="http://www.w3.org/2000/svg" viewBox="0 0 112.196 112.196" id="linkedin">
      <path d="M89.616 60.611v23.128H76.207V62.161c0-5.418-1.936-9.118-6.791-9.118-3.705 0-5.906 2.491-6.878 4.903-.353.862-.444 2.059-.444 3.268v22.524h-13.41s.18-36.546 0-40.329h13.411v5.715c-.027.045-.065.089-.089.132h.089v-.132c1.782-2.742 4.96-6.662 12.085-6.662 8.822 0 15.436 5.764 15.436 18.149zm-54.96-36.642c-4.587 0-7.588 3.011-7.588 6.967 0 3.872 2.914 6.97 7.412 6.97h.087c4.677 0 7.585-3.098 7.585-6.97-.089-3.956-2.908-6.967-7.496-6.967zm-6.791 59.77H41.27v-40.33H27.865v40.33z"
      fill="#fff"></path>
  </symbol>
  <symbol xmlns="http://www.w3.org/2000/svg" viewBox="0 0 89.758 89.758" id="instagram">
    <g fill="#fff">
      <path d="M58.255 23.88H31.503c-4.27 0-7.744 3.474-7.744 7.744v26.752c0 4.27 3.474 7.745 7.744 7.745h26.752c4.27 0 7.745-3.474 7.745-7.745V31.624c0-4.27-3.474-7.744-7.745-7.744zM44.879 58.906c-7.667 0-13.905-6.238-13.905-13.906 0-7.667 6.238-13.905 13.905-13.905 7.668 0 13.906 6.238 13.906 13.905 0 7.667-6.239 13.906-13.906 13.906zM59.232 33.97a3.294 3.294 0 0 1-3.291-3.29 3.294 3.294 0 0 1 3.291-3.29 3.294 3.294 0 0 1 3.29 3.29 3.294 3.294 0 0 1-3.29 3.29z"></path>
      <path d="M44.879 36.971c-4.426 0-8.03 3.602-8.03 8.028 0 4.428 3.604 8.031 8.03 8.031 4.428 0 8.029-3.603 8.029-8.031 0-4.425-3.602-8.028-8.029-8.028z"></path>
        </g>
  </symbol>
  <symbol xmlns="http://www.w3.org/2000/svg" viewBox="0 0 112.196 112.196" id="facebook">
        <path d="M70.201 58.294h-10.01v36.672H45.025V58.294h-7.213V45.406h7.213v-8.34c0-5.964 2.833-15.303 15.301-15.303l11.234.047v12.51h-8.151c-1.337 0-3.217.668-3.217 3.513v7.585h11.334l-1.325 12.876z" fill="#fff"></path>
  </symbol>
</svg>